<svg xmlns="http://www.w3.org/2000/svg" width="680" height="773.999" viewBox="0 0 680 773.999">
  <path id="Subtraction_1" data-name="Subtraction 1" d="M680,774H0V340a342.5,342.5,0,0,1,6.908-68.522A338.134,338.134,0,0,1,58.067,149.9,340.992,340.992,0,0,1,207.657,26.719,338.288,338.288,0,0,1,271.478,6.908a343.315,343.315,0,0,1,137.044,0A338.134,338.134,0,0,1,530.1,58.067a340.988,340.988,0,0,1,123.183,149.59,338.281,338.281,0,0,1,19.811,63.822A342.513,342.513,0,0,1,680,340V774Z" transform="translate(0 0)"/>
</svg>
