<svg xmlns="http://www.w3.org/2000/svg" width="32.901" height="35.592" viewBox="0 0 32.901 35.592">
  <path id="cart-1-svgrepo-com" d="M4.91,32.187,3.474,32.05Zm29.98,0,1.436-.137ZM33.424,16.8l-1.437.137Zm-27.048,0,1.436.137Zm4.386,2.289a1.443,1.443,0,1,0,2.886,0Zm15.391,0a1.443,1.443,0,1,0,2.886,0ZM10.206,14.755H29.594V11.869H10.206Zm21.781,2.177,1.466,15.391,2.873-.274L34.861,16.659ZM31.06,34.956H8.74v2.886H31.06ZM6.346,32.323,7.812,16.932l-2.873-.274L3.474,32.05ZM8.74,34.956a2.4,2.4,0,0,1-2.394-2.633L3.474,32.05A5.291,5.291,0,0,0,8.74,37.842Zm24.713-2.633a2.4,2.4,0,0,1-2.394,2.633v2.886a5.291,5.291,0,0,0,5.267-5.792Zm-3.86-17.568a2.4,2.4,0,0,1,2.394,2.177l2.873-.274a5.291,5.291,0,0,0-5.267-4.789ZM10.206,11.869a5.291,5.291,0,0,0-5.267,4.789l2.873.274a2.4,2.4,0,0,1,2.394-2.177Zm3.441-.481A6.253,6.253,0,0,1,19.9,5.136V2.25a9.139,9.139,0,0,0-9.139,9.138ZM19.9,5.136a6.253,6.253,0,0,1,6.253,6.253h2.886A9.139,9.139,0,0,0,19.9,2.25Zm-9.139,6.253v7.7h2.886v-7.7Zm15.391,0v7.7h2.886v-7.7Z" transform="translate(-3.449 -2.25)" fill="#fffbdf"/>
</svg>
