<svg xmlns="http://www.w3.org/2000/svg" width="30.565" height="27.396" viewBox="0 0 30.565 27.396">
  <g id="heart-svgrepo-com" transform="translate(1 -26.2)">
    <g id="Group_238" data-name="Group 238" transform="translate(0 27.2)">
      <path id="Path_217" data-name="Path 217" d="M12.96,52.043a1.882,1.882,0,0,0,1.334.553,1.907,1.907,0,0,0,1.334-.553L26.1,41.576A8.411,8.411,0,0,0,14.288,29.594,8.409,8.409,0,0,0,2.47,41.558ZM3.477,30.672a6.982,6.982,0,0,1,9.879.006l.431.431a.714.714,0,0,0,.507.21h0a.724.724,0,0,0,.507-.21l.419-.419a6.981,6.981,0,1,1,9.873,9.873L14.62,51.035a.483.483,0,0,1-.652,0L3.483,40.55a6.982,6.982,0,0,1-.006-9.879Z" transform="translate(0 -27.2)" fill="#fffbdf" stroke="#fffbdf" stroke-width="2"/>
    </g>
  </g>
</svg>
