<svg xmlns="http://www.w3.org/2000/svg" width="43.818" height="38.342" viewBox="0 0 43.818 38.342">
  <g id="Layer_2" transform="translate(-3.998 43.341) rotate(-90)">
    <g id="Group_69" data-name="Group 69" transform="translate(4.998 3.998)">
      <path id="Path_148" data-name="Path 148" d="M19.741,4A2.587,2.587,0,0,0,17,6.741V45.074a2.738,2.738,0,1,0,5.476,0V6.741A2.587,2.587,0,0,0,19.741,4Z" transform="translate(15.859 -3.998)" fill="#707070"/>
      <path id="Path_149" data-name="Path 149" d="M13.741,4A2.587,2.587,0,0,0,11,6.741V45.074a2.738,2.738,0,1,0,5.476,0V6.741A2.587,2.587,0,0,0,13.741,4Z" transform="translate(5.43 -3.998)" fill="#707070"/>
      <path id="Path_150" data-name="Path 150" d="M7.741,4A2.587,2.587,0,0,0,5,6.741V45.074a2.587,2.587,0,0,0,2.738,2.738,2.587,2.587,0,0,0,2.738-2.738V6.741A2.587,2.587,0,0,0,7.741,4Z" transform="translate(-4.998 -3.998)" fill="#707070"/>
    </g>
  </g>
</svg>
