<svg xmlns="http://www.w3.org/2000/svg" width="28.007" height="28.007" viewBox="0 0 28.007 28.007">
  <path id="Path_40" data-name="Path 40" d="M14,2.49a42.938,42.938,0,0,1,5.6.156,7.217,7.217,0,0,1,2.645.467A5.465,5.465,0,0,1,24.9,5.757,7.217,7.217,0,0,1,25.362,8.4c0,1.4.156,1.867.156,5.6a42.937,42.937,0,0,1-.156,5.6A7.217,7.217,0,0,1,24.9,22.25,5.465,5.465,0,0,1,22.25,24.9a7.217,7.217,0,0,1-2.645.467c-1.4,0-1.867.156-5.6.156a42.937,42.937,0,0,1-5.6-.156A7.217,7.217,0,0,1,5.757,24.9,5.464,5.464,0,0,1,3.112,22.25a7.217,7.217,0,0,1-.467-2.645c0-1.4-.156-1.867-.156-5.6a42.938,42.938,0,0,1,.156-5.6,7.217,7.217,0,0,1,.467-2.645A5.588,5.588,0,0,1,4.2,4.2,2.631,2.631,0,0,1,5.757,3.112,7.217,7.217,0,0,1,8.4,2.645,42.938,42.938,0,0,1,14,2.49M14,0A45.974,45.974,0,0,0,8.247.156,9.606,9.606,0,0,0,4.823.778a6.091,6.091,0,0,0-2.49,1.556A6.091,6.091,0,0,0,.778,4.823,7.089,7.089,0,0,0,.156,8.247,45.974,45.974,0,0,0,0,14a45.974,45.974,0,0,0,.156,5.757,9.606,9.606,0,0,0,.622,3.423,6.091,6.091,0,0,0,1.556,2.49,6.091,6.091,0,0,0,2.49,1.556,9.606,9.606,0,0,0,3.423.622A45.974,45.974,0,0,0,14,28.007a45.974,45.974,0,0,0,5.757-.156,9.606,9.606,0,0,0,3.423-.622,6.528,6.528,0,0,0,4.046-4.046,9.606,9.606,0,0,0,.622-3.423c0-1.556.156-2.023.156-5.757a45.974,45.974,0,0,0-.156-5.757,9.606,9.606,0,0,0-.622-3.423,6.091,6.091,0,0,0-1.556-2.49A6.091,6.091,0,0,0,23.184.778,9.606,9.606,0,0,0,19.761.156,45.974,45.974,0,0,0,14,0m0,6.846A7.042,7.042,0,0,0,6.846,14,7.157,7.157,0,1,0,14,6.846m0,11.825A4.585,4.585,0,0,1,9.336,14,4.585,4.585,0,0,1,14,9.336,4.585,4.585,0,0,1,18.672,14,4.585,4.585,0,0,1,14,18.672M21.472,4.823a1.712,1.712,0,1,0,1.712,1.712,1.727,1.727,0,0,0-1.712-1.712" fill="#f15831" fill-rule="evenodd"/>
</svg>
