<svg xmlns="http://www.w3.org/2000/svg" viewBox="0 0 534.04 179.73"><defs><style>.cls-1{fill:#0a574c;}.cls-2{fill:#e84a29;}</style></defs><g id="Layer_2" data-name="Layer 2"><g id="Layer_1-2" data-name="Layer 1"><path class="cls-1" d="M75.08,179.73a37.13,37.13,0,0,1-9-1,23.58,23.58,0,0,1-7.5-3.47l-.22-17.73a66.61,66.61,0,0,0,9.56.68q21.11,0,25-15.46A240.72,240.72,0,0,0,80,118.7l16.78-11.48a136.87,136.87,0,0,1,8.73,21A61.53,61.53,0,0,1,108.09,146a32.53,32.53,0,0,1-4.56,16.82,34.81,34.81,0,0,1-12.17,12.33A31,31,0,0,1,75.08,179.73Z"/><path class="cls-1" d="M134.54,104.61a15.55,15.55,0,0,1,11.28,4.77,30.67,30.67,0,0,1,7.4,13,61.43,61.43,0,0,1,2.55,18.31,53.09,53.09,0,0,1-3.5,19.6A32.92,32.92,0,0,1,142,174.45a24.87,24.87,0,0,1-15.83,5.28,26.68,26.68,0,0,1-15.46-4.43l-.1-17.73q6.66.68,9.78.68,9.78,0,15.17-2.16a12.15,12.15,0,0,0,7.28-7.62,18.16,18.16,0,0,1-11.12,3.3q-7.44,0-11.61-5.28T116,131.09a36.65,36.65,0,0,1,2.56-14.49,20.6,20.6,0,0,1,6.78-9A15.52,15.52,0,0,1,134.54,104.61ZM126,129a2,2,0,0,0,1.56,2,18.12,18.12,0,0,0,5.11.51,28.6,28.6,0,0,0,9.23-1.36,10.85,10.85,0,0,0-4.17-2.9,14.23,14.23,0,0,0-5.5-1.08,11.39,11.39,0,0,0-4.67.74A2.29,2.29,0,0,0,126,129Z"/><path class="cls-1" d="M220.35,128c1.18,0,2.11,1,2.77,3.07a33.11,33.11,0,0,1,1,9.55,20.21,20.21,0,0,1-1.5,8.52c-1,2.12-2.5,3.18-4.51,3.18q-7.11,0-10.89-2a18.5,18.5,0,0,1-6.67-6.31,30.12,30.12,0,0,1-21.12,8.3q-8.44,0-12.89-4.38t-4.45-12.21a58.81,58.81,0,0,1,1.23-11.25l7.89-.69c.37,2,1,3.34,2,3.87s2.89.79,5.78.79a112.73,112.73,0,0,0,12.89-.79q-4.66-9.32-12.45-26.6l18.68-9.54q1,2.71,1.94,5.34t1.73,5q7.77,22.4,9.22,24.32a4.17,4.17,0,0,0,2.72,1.59A57.41,57.41,0,0,0,220.35,128ZM193.11,87.33q-2.33-2-8.33-8l-3.89-3.75,10.78-14a103.79,103.79,0,0,1,7.56,7.17l4.45,4.32Z"/><path class="cls-1" d="M216.46,152.34c-1,0-1.84-1-2.62-3a26.66,26.66,0,0,1,.61-17.34q1.78-4,4.23-4h36.23c1.19,0,2.11,1.08,2.78,3.24a26.5,26.5,0,0,1,1,7.78q0,6.14-1.89,9.72t-4.11,3.58Z"/><path class="cls-1" d="M252.69,152.34c-1,0-1.84-1-2.61-3a26.49,26.49,0,0,1,.61-17.34q1.77-4,4.22-4h36.23c1.19,0,2.11,1.08,2.78,3.24a26.5,26.5,0,0,1,1,7.78q0,6.14-1.89,9.72t-4.11,3.58Z"/><path class="cls-1" d="M288.92,152.34c-1,0-1.83-1-2.61-3a22.55,22.55,0,0,1-1.17-8.07,22.88,22.88,0,0,1,1.78-9.27q1.79-4,4.22-4h36.24q1.77,0,2.78,3.24a26.84,26.84,0,0,1,1,7.78c0,4.09-.64,7.33-1.89,9.72s-2.63,3.58-4.12,3.58Z"/><path class="cls-1" d="M325.15,152.34c-1,0-1.83-1-2.61-3a26.66,26.66,0,0,1,.61-17.34q1.78-4,4.23-4h36.23c1.19,0,2.11,1.08,2.78,3.24a26.5,26.5,0,0,1,1,7.78q0,6.14-1.89,9.72t-4.11,3.58Z"/><path class="cls-1" d="M361.39,152.34c-1,0-1.84-1-2.62-3a26.58,26.58,0,0,1,.62-17.34q1.77-4,4.22-4h36.23c1.19,0,2.11,1.08,2.78,3.24a26.5,26.5,0,0,1,1,7.78q0,6.14-1.89,9.72t-4.11,3.58Z"/><path class="cls-1" d="M450.52,108.58a35.88,35.88,0,0,0,7.67,2.16,72.78,72.78,0,0,0,9.56.46h4.67l-1.33,18.86a50.68,50.68,0,0,0-11.23,1.37,47.5,47.5,0,0,0-9.22,3.29q-4.23,2.06-11.34,6l-6.67,3.75a66.71,66.71,0,0,1-9.17,4.32,54.22,54.22,0,0,1-10.5,2.55,101.58,101.58,0,0,1-15.34,1c-.82,0-1.65-1-2.5-3.07a18.23,18.23,0,0,1-1.28-7,25.57,25.57,0,0,1,1.78-10.06c1.18-2.77,2.6-4.15,4.22-4.15a250.13,250.13,0,0,0,27.46-1.48,63.69,63.69,0,0,0,9.44-2.16l-5-1.47c-2.59-.84-4.85-1.46-6.78-1.88a30.31,30.31,0,0,0-6.44-.63,31.83,31.83,0,0,0-6.84.86,27.6,27.6,0,0,0-5.28,1.53l-1.89-13a27.77,27.77,0,0,1,8.78-7.84q5.34-3.06,9.67-3.07a27.81,27.81,0,0,1,9,1.31,73,73,0,0,1,9.17,4A82.55,82.55,0,0,0,450.52,108.58Zm-9.66,67.86q-2.34-2.06-8.34-8l-3.89-3.75,10.78-14a101,101,0,0,1,7.56,7.16l4.44,4.32Z"/><path class="cls-2" d="M211.19,18.32c-.18-.34-.5-.38-1-.12l-5.5,3.06,1.44,2.7L209.63,22a2,2,0,0,0,.53-.38.39.39,0,0,0,0-.46l.41-.23,1.52,2.86-.45.25c-.06-.22-.18-.31-.37-.26a3,3,0,0,0-.74.32L207.23,26l1.69,3.19,5.77-3.21a.79.79,0,0,0,.37-.4.53.53,0,0,0,0-.49l.41-.23L217,27.66l-.41.22c-.08-.16-.19-.22-.32-.17a4.87,4.87,0,0,0-.47.23l-8.27,4.6-.26-.49a.37.37,0,0,0,.18-.22.43.43,0,0,0-.05-.37L202,21.36a.42.42,0,0,0-.28-.25.39.39,0,0,0-.27,0l-.26-.49,8-4.45c.46-.26.61-.55.44-.87l.4-.23,1.6,3Z"/><path class="cls-2" d="M220,20.82a1.82,1.82,0,0,1,.07.25l.09.28a1.07,1.07,0,0,0,.75.62,4.81,4.81,0,0,0,1.31.19,10.91,10.91,0,0,0,1.42-.1,5.54,5.54,0,0,0,1.05-.24,8.38,8.38,0,0,0,.81-.37,4,4,0,0,0,.88-.62A2.38,2.38,0,0,0,227,20a1.3,1.3,0,0,0,0-1,1,1,0,0,0-.93-.69,6.06,6.06,0,0,0-1.64.11l-2,.42a8.63,8.63,0,0,1-2.11.21,4,4,0,0,1-1.86-.47,3,3,0,0,1-1.29-1.69,4,4,0,0,1,.21-3.43A5.74,5.74,0,0,1,220.55,11a8,8,0,0,1,2-.53,9.16,9.16,0,0,1,1.54,0,10.45,10.45,0,0,1,1.07.13,1.23,1.23,0,0,0,.6,0,.6.6,0,0,0,.26-.18l.18-.25.38.22-.21,3.16h-.5c-.06-.11-.12-.22-.17-.33a.63.63,0,0,0-.35-.27,4,4,0,0,0-1.79-.26,7.23,7.23,0,0,0-2.39.51,5.51,5.51,0,0,0-.88.42,2.7,2.7,0,0,0-.68.54,1.48,1.48,0,0,0-.37.65,1.31,1.31,0,0,0,.05.75,1,1,0,0,0,.92.68,6.61,6.61,0,0,0,1.64-.13l2-.42a9.13,9.13,0,0,1,2.11-.2,4,4,0,0,1,1.88.54,3.18,3.18,0,0,1,1.32,1.76,4.2,4.2,0,0,1,.24,2.27,4.28,4.28,0,0,1-.83,1.76,5.09,5.09,0,0,1-1.47,1.25,12.88,12.88,0,0,1-1.69.81,7.62,7.62,0,0,1-1.69.43,14.22,14.22,0,0,1-1.63.13c-.5,0-.93,0-1.28,0a1.94,1.94,0,0,0-.63,0,.36.36,0,0,0-.23.28l-.44-.16-.07-3.65Z"/><path class="cls-2" d="M237.87,19.25a.39.39,0,0,0,.23-.16.47.47,0,0,0,.05-.38l-2.27-10-3.25.77a.7.7,0,0,0-.34.2.47.47,0,0,0-.09.44l-.45.1L231,6.81l.45-.11a.7.7,0,0,0,.31.53.57.57,0,0,0,.4.06L241,5.18a.57.57,0,0,0,.34-.24.78.78,0,0,0,0-.61l.45-.11.78,3.45-.45.11a.44.44,0,0,0-.27-.35.68.68,0,0,0-.4,0l-3.25.77,2.26,10a.42.42,0,0,0,.56.35l.12.54-3.22.76Z"/><path class="cls-2" d="M248.78,15.59a2.35,2.35,0,0,1,.34-1.59,1.59,1.59,0,0,1,2.54-.35,2.26,2.26,0,0,1,.73,1.46,2.12,2.12,0,0,1-.34,1.55,1.65,1.65,0,0,1-1.19.76,1.63,1.63,0,0,1-1.35-.42A2.16,2.16,0,0,1,248.78,15.59Z"/><path class="cls-2" d="M277.42,17h-.3c0-.23-.07-.35-.23-.38a4.15,4.15,0,0,0-.53,0l-10.79-.39a3,3,0,0,0-.47,0c-.12,0-.18.13-.19.32h-.3l0-1.11a5.39,5.39,0,0,1,.77-2.77,8.07,8.07,0,0,1,1.78-2,13.8,13.8,0,0,1,2.26-1.49c.8-.42,1.55-.84,2.25-1.25a10.22,10.22,0,0,0,1.75-1.31,2.36,2.36,0,0,0,.74-1.64A2.18,2.18,0,0,0,274,3.84a2.14,2.14,0,0,0-.61-.69,2.18,2.18,0,0,0-.83-.39,4.74,4.74,0,0,0-.89-.12,4.33,4.33,0,0,0-1.09.14,5,5,0,0,0-1.25.51,4.08,4.08,0,0,0-1,.84,1.7,1.7,0,0,0-.46,1.14,1.31,1.31,0,0,0,.05.4A.63.63,0,0,0,268,6l-.26.21-2.53-3.48.27-.2.2.13a.44.44,0,0,0,.22.07c.11,0,.3-.14.59-.44a8.5,8.5,0,0,1,1.16-1A8.2,8.2,0,0,1,269.5.38,6.27,6.27,0,0,1,272.08,0a6.49,6.49,0,0,1,1.9.34,4.78,4.78,0,0,1,1.64.94,4.36,4.36,0,0,1,1.12,1.58,5.22,5.22,0,0,1,.37,2.3,5.4,5.4,0,0,1-.54,2.38,5,5,0,0,1-1.27,1.57,7.36,7.36,0,0,1-1.75,1.06c-.64.29-1.3.57-2,.84s-1.31.56-1.92.87a6.13,6.13,0,0,0-1.65,1.2v.31l8.46.3a1.07,1.07,0,0,0,.53-.1c.16-.08.25-.32.27-.73h.31Z"/><path class="cls-2" d="M290.73,2a6.31,6.31,0,0,1,2.64,1.09,6.81,6.81,0,0,1,1.95,2.08A8.22,8.22,0,0,1,296.38,8a9.76,9.76,0,0,1,0,3.37,9.41,9.41,0,0,1-1.09,3.18,7.92,7.92,0,0,1-1.91,2.31,6.66,6.66,0,0,1-2.5,1.27,6.75,6.75,0,0,1-7.45-3,8.09,8.09,0,0,1-1.06-2.82,9.3,9.3,0,0,1,0-3.37,9.34,9.34,0,0,1,1.08-3.18,8,8,0,0,1,1.92-2.32,6.61,6.61,0,0,1,2.5-1.31A6.36,6.36,0,0,1,290.73,2Zm-.43,2.61a3.46,3.46,0,0,0-1.72.14,4.13,4.13,0,0,0-1.49.94,5.91,5.91,0,0,0-1.15,1.61,7.32,7.32,0,0,0-.68,2.15,7.44,7.44,0,0,0-.05,2.25,6.1,6.1,0,0,0,.57,1.91A4.12,4.12,0,0,0,286.89,15a3.45,3.45,0,0,0,3.29.57,4.13,4.13,0,0,0,1.49-.94A5.76,5.76,0,0,0,292.82,13a7.25,7.25,0,0,0,.68-2.14,7.5,7.5,0,0,0,.05-2.26A6.18,6.18,0,0,0,293,6.68a4.22,4.22,0,0,0-1.11-1.39A3.46,3.46,0,0,0,290.3,4.58Z"/><path class="cls-2" d="M302.73,21.13a.62.62,0,0,0,.48,0,.93.93,0,0,0,.38-.61l2.94-9.82-.41-.09a2.07,2.07,0,0,0-.49,0,1.44,1.44,0,0,0-.46.08.64.64,0,0,0-.37.28l-.3-.09,1.11-3.71.3.1a.38.38,0,0,0,.11.43.9.9,0,0,0,.39.24.92.92,0,0,0,.79-.09,1.08,1.08,0,0,0,.5-.66.66.66,0,0,0,0-.58,1.17,1.17,0,0,0-.37-.31l.1-.36,4,1.25-.1.35a1.38,1.38,0,0,0-.55,0,.55.55,0,0,0-.33.38l-4,13.47a.91.91,0,0,0,0,.72.71.71,0,0,0,.4.3l-.11.36-4.05-1.27Z"/><path class="cls-2" d="M317.82,21.82l.21.3a2.79,2.79,0,0,0-.12.35.87.87,0,0,0,0,.39,2.26,2.26,0,0,0,.35.93,4.33,4.33,0,0,0,.65.83,4.8,4.8,0,0,0,.82.67,6.35,6.35,0,0,0,.8.47c2.43,1.14,4.37.28,5.85-2.57a18.06,18.06,0,0,1-2.42.08,5.62,5.62,0,0,1-2.23-.54,7.27,7.27,0,0,1-1.62-1.06,5.54,5.54,0,0,1-1.24-1.54,4.51,4.51,0,0,1-.55-1.91,4.62,4.62,0,0,1,.45-2.23,5.59,5.59,0,0,1,1.62-2.18,5.24,5.24,0,0,1,2.11-1,6,6,0,0,1,2.31-.09,8,8,0,0,1,2.2.67A5.9,5.9,0,0,1,329.1,15a6.09,6.09,0,0,1,1.17,2.31,7.29,7.29,0,0,1,.19,2.78,9.8,9.8,0,0,1-.84,3,11.58,11.58,0,0,1-2,3.06A8.07,8.07,0,0,1,325.17,28a6.35,6.35,0,0,1-2.83.6,7.39,7.39,0,0,1-3-.74,8.1,8.1,0,0,1-1.7-1,5.87,5.87,0,0,1-1-1c-.24-.33-.44-.61-.58-.84a1.06,1.06,0,0,0-.39-.45.72.72,0,0,0-.52,0l-.1-.28Zm7.88-6.15a6,6,0,0,0-1.15-.39,3.19,3.19,0,0,0-1.15,0,2.17,2.17,0,0,0-1,.47,2.86,2.86,0,0,0-.79,1.1,2.89,2.89,0,0,0-.3,1.33,2.19,2.19,0,0,0,.31,1.1,3.08,3.08,0,0,0,.76.86,5.33,5.33,0,0,0,1,.65,5.25,5.25,0,0,0,1.16.38,2.93,2.93,0,0,0,1.14,0,2.28,2.28,0,0,0,1-.47,3,3,0,0,0,.8-1.1,3.2,3.2,0,0,0,.3-1.33,2.28,2.28,0,0,0-.32-1.1,3,3,0,0,0-.76-.87A5.81,5.81,0,0,0,325.7,15.67Z"/><ellipse class="cls-2" cx="13.45" cy="130.59" rx="7.03" ry="7.19"/><ellipse class="cls-2" cx="520.58" cy="128.87" rx="7.03" ry="7.19"/></g></g></svg>