<svg id="Group_309" data-name="Group 309" xmlns="http://www.w3.org/2000/svg" xmlns:xlink="http://www.w3.org/1999/xlink" width="282.283" height="282.387" viewBox="0 0 282.283 282.387">
  <defs>
    <clipPath id="clip-path">
      <rect id="Rectangle_1532" data-name="Rectangle 1532" width="282.283" height="282.387" fill="#fffbdf"/>
    </clipPath>
  </defs>
  <g id="Group_308" data-name="Group 308" clip-path="url(#clip-path)">
    <path id="Path_236" data-name="Path 236" d="M244.581,273.583a36.015,36.015,0,0,0-5.783.01c-2.265.245-2.86-.442-2.851-2.779.094-27.482.06-54.965.058-82.447a19.435,19.435,0,0,0-.054-2.754,3.95,3.95,0,0,0-4.019-3.753c-3.207-.186-4.744,1.592-4.744,5.554q-.009,41.775.054,83.55c.007,2.23-.644,2.675-2.719,2.635-6.706-.131-13.419-.162-20.123.013-2.31.06-2.833-.548-2.823-2.835.1-21.967.064-43.935.056-65.9,0-10.478-5.9-16.416-16.354-16.435q-19.3-.034-38.6.013a21.269,21.269,0,0,0-4.921.439c-6.857,1.666-10.687,7.05-10.7,15.021q-.042,33.5.025,67.006c0,1.856-.166,2.7-2.437,2.692q-51.279-.129-102.558-.011c-2.017,0-2.371-.615-2.358-2.471.086-12.04.043-24.081.043-36.122,0-22.059.026-44.119-.043-66.178-.006-1.946.438-2.5,2.414-2.269A25.865,25.865,0,0,0,39.1,164.7a30.883,30.883,0,0,0,13.763-11.41c12.863,18.057,36.2,17.609,48.385.365,11.815,16.846,35.379,18.1,48.391-.318.672.866,1.314,1.725,1.988,2.557,9.637,11.89,25.768,14.273,38.232,5.654,2.485-1.718,3.143-3.783,1.946-6.108-1.4-2.719-4.068-2.993-7.524-.781-6.248,4-12.755,4.464-19.306.985-6.634-3.523-10.433-9.124-10.934-16.7-.206-3.112.037-6.251-.066-9.372-.052-1.549.418-2.082,2.01-2.05,4.5.093,9.006.087,13.509.006,3.233-.058,4.745-1.543,4.758-4.394.012-2.947-1.649-4.514-4.931-4.538-4.6-.034-9.191-.069-13.784.024-1.58.032-2.088-.339-2.343-2.054q-3.048-20.51-6.433-40.971c-.351-2.143.407-2.376,2.248-2.362,3.319.025,4.978-1.673,4.89-4.592-.082-2.774-1.692-4.051-5-4.2-4.69-.207-9.347.507-14.022.428-8.963-.152-17.915-.216-26.893-.7-18.513-1-37.072.47-55.617.3a16.319,16.319,0,0,0-1.929.068c-4.56.506-8.489,2.223-11.359,5.958Q19.539,95.916,0,121.333v18.2a3.283,3.283,0,0,1,.47,2.855c1.248,8.294,5.6,14.652,12.41,19.311A4.368,4.368,0,0,1,15,165.917q-.087,50.6-.06,101.2c0,2.079.924,4.92-.416,6.03-1.274,1.055-4.009.385-6.1.4-4.806.029-6.763,1.339-6.676,4.541.086,3.081,1.958,4.292,6.646,4.292h233.79c.828,0,1.658.043,2.481-.026a4.391,4.391,0,0,0-.079-8.765M106.645,116.348q3.33-20.463,6.357-40.975c.24-1.609.723-2.15,2.372-2.127,6.607.088,13.22.132,19.827-.025,1.895-.044,2.3.791,2.534,2.29,2.223,14.277,4.469,28.551,6.748,43.075h-5.364c-10.191,0-20.38-.043-30.57.039-1.864.015-2.215-.363-1.9-2.277m-.33,11.726c1.442-1.609,4.827-.482,7.362-.5,9.63-.057,19.259.052,28.886-.08,2.149-.03,2.653.613,2.514,2.617-.177,2.555-.04,5.133-.044,7.7-.013,9.642-7.211,18.3-16.5,19.854-9.45,1.581-19.007-4.38-22.142-13.707-.976-2.9-.223-5.832-.326-8.735,0-2.46-.971-5.79.252-7.153m-9.7,1.817c-.176,2.832-.072,5.686-.028,8.529.208,13.523-14,23.245-26.5,18.117a20.515,20.515,0,0,1-12.735-18.91c-.023-2.752.071-5.508-.034-8.256-.056-1.457.424-1.866,1.862-1.848,5.963.075,11.925.032,17.888.032,5.688,0,11.377.074,17.062-.043,1.856-.038,2.608.362,2.483,2.379M82.373,73.229c6.6.13,13.212.08,19.817.03,1.364-.01,1.842.17,1.581,1.775-1.665,10.286-3.186,20.6-4.771,30.894-.57,3.7-1.207,7.4-1.759,11.1-.151,1-.324,1.594-1.611,1.587-11.731-.057-23.461-.033-35.519-.033,2.422-5.354,4.742-10.477,7.058-15.6q6.253-13.841,12.491-27.69c.55-1.226,1.016-2.1,2.713-2.064M14.82,116.665Q29.87,96.8,44.932,76.953c1.6-2.123,3.567-3.53,6.192-3.574,6.323-.1,12.65-.034,19.329-.034l-7,15.346c-4.2,9.209-8.454,18.4-12.569,27.648-.722,1.623-1.435,2.325-3.355,2.305-11.192-.118-22.386-.058-33.569-.058-.347-1.019.467-1.4.864-1.921M8.835,138.226c-.049-2.751.1-5.511-.052-8.254-.107-1.874.382-2.515,2.375-2.467,5.867.139,11.74.049,17.612.049s11.742.059,17.611-.037c1.639-.027,2.3.318,2.176,2.1-.284,4.106.382,8.251-.494,12.342a20.148,20.148,0,0,1-21.682,15.809c-9.378-.91-17.373-9.8-17.546-19.537M189.949,273.6q-23.7-.143-47.392-.006c-2.044.01-2.769-.361-2.742-2.623.136-11.206.061-22.413.061-33.62q0-16.536.006-33.07c.011-5.422,1.617-7.012,7.085-7.019q19.15-.024,38.3,0c5.6.009,7.544,2.017,7.544,7.7,0,21.955-.043,43.91.065,65.864.012,2.419-.75,2.782-2.927,2.769" fill="#fffbdf"/>
    <path id="Path_237" data-name="Path 237" d="M237.745,2.228C234.456,1.317,231.074.734,227.736,0H215.6c-.145.42-.5.444-.865.49-16.579,2.07-30.1,9.712-40.256,22.891-10.021,13-14.41,27.758-11.748,44.161,1.5,9.265,4.963,17.992,8.552,26.628,10.291,24.758,23.189,48.187,36.511,71.394,6.62,11.534,21.594,11.636,28.508.228,1.138-1.88,2.186-3.815,3.269-5.73,13.209-23.376,26.087-46.923,35.773-72.043,3.434-8.9,6.775-17.913,6.927-27.6.415-26.443-18.411-50.959-44.531-58.191m30.918,78.719c-8.453,23.445-20.261,45.282-32.233,67.037-2.517,4.577-5.073,9.136-7.75,13.621-3.075,5.149-9.556,5.295-12.567.141-14.661-25.084-28.909-50.394-39.375-77.6-3.491-9.08-6.476-18.27-5.872-28.31,1.37-22.84,20.9-43.8,43.618-46.469a44.225,44.225,0,0,1,6.918-.542c28.45.014,52.329,23.716,52.065,51.319-.069,7.247-2.376,14.068-4.8,20.8" fill="#fffbdf"/>
    <path id="Path_238" data-name="Path 238" d="M0,139.532v2.758l.224.107.247-.011c-.5-.894.184-1.985-.471-2.854" fill="#fefefe"/>
    <path id="Path_239" data-name="Path 239" d="M99.364,190.644c-7.531-.024-15.063,0-22.594,0-7.623,0-15.246-.03-22.869.008-8.984.045-14.181,5.259-14.195,14.208q-.024,15.294,0,30.589c.014,9.013,5.343,14.307,14.437,14.317q22.593.027,45.187,0c9.16-.01,14.4-5.172,14.436-14.282q.064-15.294,0-30.589c-.037-9.174-5.154-14.216-14.4-14.246m-.376,50.295q-22.324.011-44.649,0c-4.458,0-5.806-1.329-5.81-5.69q-.015-15.162,0-30.323c.005-4.1,1.322-5.437,5.427-5.453,7.625-.029,15.251-.008,22.876-.008,7.441,0,14.883-.013,22.325,0,4.667.011,5.786,1.151,5.792,5.9q.018,14.747,0,29.495c0,4.838-1.222,6.076-5.962,6.078" fill="#fffbdf"/>
    <path id="Path_240" data-name="Path 240" d="M182.1,206.1q-15.837-.068-31.676,0c-3.4.016-4.817,1.5-4.837,4.917q-.057,9.778,0,19.56c.019,3.55,1.454,4.952,5.06,4.976,5.233.035,10.467.009,15.7.009s10.467.028,15.7-.01c3.46-.025,4.916-1.417,4.939-4.785q.067-9.918,0-19.835c-.021-3.406-1.417-4.819-4.886-4.834m-5.8,20.667c-3.4-.081-6.8-.027-10.2-.027-3.308,0-6.619-.076-9.923.034-1.476.05-1.868-.432-1.814-1.852.106-2.753.132-5.518-.008-8.268-.08-1.57.569-1.781,1.9-1.771,6.708.051,13.416.067,20.123-.011,1.474-.017,1.882.433,1.827,1.862-.1,2.753-.125,5.517.006,8.268.074,1.561-.564,1.8-1.911,1.765" fill="#fffbdf"/>
    <path id="Path_241" data-name="Path 241" d="M153.883,248.991a4.364,4.364,0,0,0-8.647-.536,36.489,36.489,0,0,0,0,7.374c.248,2.432,2.18,3.713,4.714,3.509a3.874,3.874,0,0,0,3.933-4.049c.057-1,.009-2.008.008-3.012,0-1.1.046-2.193-.01-3.286" fill="#fffbdf"/>
    <path id="Path_242" data-name="Path 242" d="M222.487,21.143a38.823,38.823,0,1,0,38.689,39.013,38.613,38.613,0,0,0-38.689-39.013m-.144,68.812a29.985,29.985,0,0,1-.074-59.97c16.232-.05,30.032,13.709,30.075,29.986.043,16.258-13.681,29.975-30,29.984" fill="#fffbdf"/>
  </g>
</svg>
