<svg id="Group_307" data-name="Group 307" xmlns="http://www.w3.org/2000/svg" xmlns:xlink="http://www.w3.org/1999/xlink" width="266.877" height="267.065" viewBox="0 0 266.877 267.065">
  <defs>
    <clipPath id="clip-path">
      <rect id="Rectangle_1531" data-name="Rectangle 1531" width="266.877" height="267.065" fill="none"/>
    </clipPath>
  </defs>
  <g id="Group_306" data-name="Group 306" clip-path="url(#clip-path)">
    <path id="Path_226" data-name="Path 226" d="M263.7,68.109c-1.749-.968-3.352-2.171-5.042-3.234q-35.823-22.538-71.5-45.3a29.326,29.326,0,0,0-10.993-4.458c-6.932-1.177-13.8-2.7-20.709-4.026C136.307,7.4,117.3,2.958,98.01,0L95.117.156a3.7,3.7,0,0,0-2.832,3.307c-.241,2.274,1.018,3.783,2.791,4.928,5.327,3.438,10.734,6.751,16.068,10.178,6.276,4.032,12.635,7.936,19.1,12.128a17.938,17.938,0,0,1-3.087,1.095c-7.527,2.107-14.984,4.453-22.473,6.687a5.758,5.758,0,0,1-5.147-.758c-6.9-4.364-13.87-8.622-20.651-13.163-3.349-2.243-6.118-2.163-9.486.139Q57.567,32.781,45.444,40.438a25.131,25.131,0,0,0-5.248,3.83,4.3,4.3,0,0,0-.421,5.5,4.245,4.245,0,0,0,5.27,1.647,12.968,12.968,0,0,0,2.473-1.436C55.659,44.651,63.863,39.423,71.942,34c1.56-1.046,2.82-1.244,4.486-.147,3.118,2.052,6.295,4.019,9.45,6.016q24.549,15.532,49.1,31.069c4.378,2.76,8.785,5.484,13.054,8.388-.428.973-1.218,1.234-1.85,1.649q-28.639,18.81-57.307,37.577c-1.874,1.232-3.215.908-4.944-.187q-22.338-14.154-44.681-28.3c-8.3-5.242-16.566-10.527-24.882-15.737-1.46-.915-1.737-1.556-.078-2.562,1.372-.831,2.708-1.729,4.021-2.651,3.22-2.258,6.74-4.074,9.842-6.5,2.432-1.9,2.806-4.341,1.148-6.589-1.562-2.115-3.74-2.375-6.451-.695-6.72,4.162-13.171,8.742-19.89,12.906A6.32,6.32,0,0,0,0,72.016V212.242c.642,1.861,2.2,2.8,3.743,3.778q34.061,21.535,68.1,43.1c4.363,2.766,8.526,5.9,13.326,7.942l3.266-.493a4.639,4.639,0,0,1,1.478-.39q55.646-16.56,111.31-33.055c9.713-2.882,19.434-5.738,29.13-8.675,3.3-1,4.332-4.308,2.2-6.643-1.6-1.747-3.419-1.112-5.292-.556q-66.984,19.9-133.964,39.826c-2.325.693-2.832.381-2.827-2.113q.117-61.771-.018-123.542c-.007-2.514.814-3.358,3.06-4.021q67.89-20.042,135.738-40.22c9.868-2.927,19.738-5.844,29.811-8.826V179.4c0,8.514-.071,17.029.05,25.541.03,2.121-.41,3.272-2.678,3.705a71.861,71.861,0,0,0-7.235,2.078c-2.929.888-4.01,2.663-3.21,5.209.743,2.367,2.518,3.129,5.462,2.274,3.575-1.039,7.118-2.2,10.714-3.159a8.458,8.458,0,0,0,4.715-2.8V72.016a6.287,6.287,0,0,0-3.173-3.907m-181,185.823v1.431c-1.029.293-1.5-.344-2.042-.688Q45.18,232.229,9.707,209.763c-1.125-.713-1.943-1.31-1.941-2.966.067-42.03.053-84.061.053-126.592L32.7,95.956q23.945,15.156,47.9,30.3c1.3.821,2.16,1.588,2.157,3.408q-.1,62.135-.05,124.269M117.759,12.746a5.693,5.693,0,0,1,3.183.079q28.214,5.659,56.432,11.3a8.123,8.123,0,0,1,2.754,1.1q30.4,19.267,60.813,38.52c.273.173.524.38.785.572q-.092.228-.185.457-13.877-2.754-27.754-5.509c-10.023-2-20.04-4.038-30.067-6.019a14.9,14.9,0,0,1-5.255-2.035c-20.142-12.809-40.317-25.564-60.706-38.474m-4.8,100.8-.243-.524Q135.112,98.361,157.5,83.692c4.531-2.97,4.47-5.634-.175-8.577q-21.854-13.843-43.71-27.683c-.871-.552-1.725-1.13-2.913-1.91,6.592-1.979,12.859-3.87,19.133-5.74,2.654-.791,5.371-1.4,7.966-2.348a5.561,5.561,0,0,1,5.487.666c10.769,6.966,21.65,13.759,32.463,20.658,3.739,2.386,8.091,2.427,12.2,3.274C207.22,66,226.52,69.788,245.91,74.094L112.961,113.55" fill="#fffbdf"/>
    <path id="Path_227" data-name="Path 227" d="M237.849,153.055q-23.265,6.936-46.532,13.857Q150.01,179.2,108.7,191.47c-3.224.958-3.943,1.955-3.947,5.444q-.01,8.856,0,17.713c0,5.991-.012,11.982,0,17.973.012,4.23,2.1,5.775,6.2,4.555q64.818-19.278,129.63-38.579a5.971,5.971,0,0,0,4.267-5.719q.01-17.349,0-34.7c0-5.269-1.888-6.63-7-5.105m-2.7,38.983q-60.724,18-121.412,36.127a10.992,10.992,0,0,1-1.167.2c0-9.644.028-19.184-.025-28.723-.011-1.8,1.427-1.548,2.337-1.821,16.245-4.867,32.513-9.658,48.767-14.5q35.2-10.479,70.389-21a2.205,2.205,0,0,1,3,2.231c0,8.249-.031,16.5.028,24.747.011,1.493-.289,2.245-1.914,2.727" fill="#fffbdf"/>
    <path id="Path_228" data-name="Path 228" d="M227.476,170.533c-2.566-.226-4.244,1.135-4.363,3.662-.086,1.815-.017,3.636-.02,5.455s-.055,3.639.011,5.455a3.961,3.961,0,0,0,3.8,4.124,3.9,3.9,0,0,0,3.969-3.948c.1-3.671.1-7.35,0-11.021a3.818,3.818,0,0,0-3.392-3.727" fill="#fffbdf"/>
    <path id="Path_229" data-name="Path 229" d="M151.928,192.617a3.677,3.677,0,0,0-3.8,3.769c-.1,1.811-.02,3.633-.018,5.45,0,1.9-.1,3.815.028,5.71a3.787,3.787,0,0,0,4.109,3.748,3.679,3.679,0,0,0,3.637-3.91q.114-5.449,0-10.9a3.7,3.7,0,0,0-3.955-3.865" fill="#fffbdf"/>
    <path id="Path_230" data-name="Path 230" d="M122.709,201.35c-2.354.139-3.858,1.286-3.9,3.72-.03,1.818-.006,3.637-.006,5.456,0,1.9-.068,3.813.017,5.714a3.862,3.862,0,0,0,7.717.2c.144-3.817.148-7.648,0-11.464a3.71,3.71,0,0,0-3.826-3.625" fill="#fffbdf"/>
    <path id="Path_231" data-name="Path 231" d="M215.085,173.655a3.429,3.429,0,0,0-3.492,3.712c-.045,2.377.015,4.757-.026,7.135-.019,1.153.008,2.307.012,3.46,0,.191,0,.384.014.575a3.844,3.844,0,0,0,3.819,3.8c2.182-.084,3.757-1.315,3.873-3.461.214-3.971.189-7.966.021-11.941-.09-2.15-2-3.468-4.221-3.278" fill="#fffbdf"/>
    <path id="Path_232" data-name="Path 232" d="M176.28,189.939c-.06-2.342-1.562-3.454-3.659-3.592-2.147-.142-3.879.933-3.986,3.19a114.584,114.584,0,0,0,.032,12.182c.133,2.237,1.862,3.488,4.275,3.231a3.826,3.826,0,0,0,3.321-3.626c.107-1.886.021-3.783.024-5.675s.042-3.808-.007-5.71" fill="#fffbdf"/>
    <path id="Path_233" data-name="Path 233" d="M203.461,176.8a3.323,3.323,0,0,0-3.379,3.528c-.05,1.817-.01,3.636-.009,5.453,0,1.991-.06,3.984.018,5.972a3.578,3.578,0,0,0,3.618,3.681,3.42,3.42,0,0,0,3.925-3.021,57.637,57.637,0,0,0,.033-12.682c-.225-2.22-2.043-3.11-4.206-2.931" fill="#fffbdf"/>
    <path id="Path_234" data-name="Path 234" d="M187.385,192.832c0-1.9.111-3.814-.028-5.706a3.569,3.569,0,0,0-3.924-3.59,3.419,3.419,0,0,0-3.771,3.683c-.114,3.63-.1,7.267-.017,10.9a3.92,3.92,0,0,0,3.773,4.128,3.965,3.965,0,0,0,3.961-3.966c.12-1.808.023-3.631.023-5.448h-.017" fill="#fffbdf"/>
    <path id="Path_235" data-name="Path 235" d="M137.827,207.813c0-1.964.126-3.937-.045-5.887a3.6,3.6,0,0,0-3.361-3.274c-2.648-.136-4.228,1.067-4.294,3.529-.1,3.716-.121,7.438-.018,11.154A3.89,3.89,0,0,0,134,217.342a3.974,3.974,0,0,0,3.842-4.081c.1-1.811.02-3.632.02-5.448h-.036" fill="#fffbdf"/>
  </g>
</svg>
