<svg id="Group_311" data-name="Group 311" xmlns="http://www.w3.org/2000/svg" xmlns:xlink="http://www.w3.org/1999/xlink" width="239.975" height="282.947" viewBox="0 0 239.975 282.947">
  <defs>
    <clipPath id="clip-path">
      <rect id="Rectangle_1533" data-name="Rectangle 1533" width="239.975" height="282.947" fill="#fffbdf"/>
    </clipPath>
  </defs>
  <g id="Group_310" data-name="Group 310" clip-path="url(#clip-path)">
    <path id="Path_243" data-name="Path 243" d="M237.807,141.3c-3.13-5.469-7.949-8.579-14.532-8.36-1.839.061-3.683.018-5.524.007-3.732-.023-3.843-.124-3.845-3.908-.006-18.421.026-36.842-.011-55.263a73.755,73.755,0,0,0-12.6-41.409,16.727,16.727,0,0,0-2.392-3.03c-1.626-1.528-3.475-2.073-5.56-1.013s-2.69,2.885-2.474,5.1a8.628,8.628,0,0,0,1.839,3.963,65.094,65.094,0,0,1,11.35,37.751c-.089,17.684-.021,35.368-.023,53.052,0,.921,0,1.842-.035,2.763-.053,1.382-.809,1.91-2.126,1.978-2.323.119-2.883-.478-2.885-3.491Q198.97,101.668,199,73.9a64.15,64.15,0,0,0-.62-9.081c-4.018-28.529-29.437-50.682-58.2-50.684-11.787,0-23.574-.021-35.361.006C88.84,14.175,75.1,20,63.706,30.988,51.573,42.69,45.772,57.342,45.511,74.106c-.21,13.536-.044,27.078-.042,40.617a24.229,24.229,0,0,0,.068,2.485c.339,3.262,2.466,5.51,5.167,5.472,2.718-.038,4.557-2.293,4.611-5.77.064-4.111-.007-8.225.033-12.58,5.442,8.694,10.57,17.217,15.818,25.665.46.74,1.395,1.488.791,2.447-.491.78-1.513.494-2.315.5q-12.432.027-24.863.008c-4.228-.005-4.36-.132-4.362-4.319-.007-17.04-.052-34.079.034-51.118a94.858,94.858,0,0,1,.782-11.831A63.225,63.225,0,0,1,59.259,28.6,63.019,63.019,0,0,1,104.734,9.115c11.968-.193,23.943-.157,35.912,0a61.728,61.728,0,0,1,25.894,6.018,106.193,106.193,0,0,1,12.8,7.618c2.322,1.531,4.295,1.271,6.026-.429a5.065,5.065,0,0,0,.651-6.122,6.54,6.54,0,0,0-1.889-1.988A75.979,75.979,0,0,0,158.221,1.579C154.092.525,149.864.635,145.709,0H143.5a2.49,2.49,0,0,1-3.315,0H98.193c-2.506.553-5.1.269-7.606.788A73.4,73.4,0,0,0,51.711,22.112a72.264,72.264,0,0,0-18.565,33.6A142.881,142.881,0,0,0,20.27,37.667a62.919,62.919,0,0,0-5.9-6.562,5.035,5.035,0,0,0-6.8-.194c-1.959,1.813-2.091,3.845-.432,6.449a26.892,26.892,0,0,0,2.835,3.378A124.964,124.964,0,0,1,26.778,64.289c.879,1.612.89,2.27-1.3,2.536A28.851,28.851,0,0,0,6.1,77.382c-8.633,10.417-7.944,26.236,1.048,36.3,3.31,3.705,6.454,7.56,9.641,11.372,2.084,2.491,4.484,4.753,6.178,7.594a3.617,3.617,0,0,1-2.311.358c-8.161.132-14.611,5.872-15.394,13.721-.9,9.008,4.05,16.231,12.309,17.965,3.62.76,3.631.763,2.46,4.283a104.672,104.672,0,0,0-4.768,45.484,106.919,106.919,0,0,0,24.528,57.321c.477.573,1.315,1.026,1.087,2.051-1.681.237-3.342,0-4.987.149-2.517.231-4.134,1.546-4.569,3.687-.508,2.5.242,3.929,2.777,5.276H210.353c2.627-1.084,3.612-2.458,3.346-4.664a5.019,5.019,0,0,0-4.434-4.274c-1.8-.29-3.65-.013-5.412-.214a.868.868,0,0,1,.239-.877,101.787,101.787,0,0,0,19.93-34.766,107.834,107.834,0,0,0,.6-69.716c-.92-2.846-.9-2.984,2.145-3.56a15.084,15.084,0,0,0,9.973-6.374c3.784-5.485,4.392-11.392,1.068-17.2m-47.833-17.9c0,2.578-.164,5.169.05,7.729.183,2.2-.675,2.539-2.641,2.517-9.3-.1-18.593-.045-27.89-.045s-18.594-.052-27.89.044c-1.889.019-2.488-.414-2.477-2.4q.126-24.306,0-48.611c-.009-1.853.527-2.337,2.308-2.293,4.507.113,9.02.089,13.529.009,1.453-.026,1.931.434,1.855,1.881-.111,2.112-.057,4.234-.021,6.351.08,4.72,3.111,8.125,7.759,8.376a101.624,101.624,0,0,0,11.039,0c4.637-.255,7.665-3.67,7.745-8.393.038-2.209.063-4.421-.014-6.628-.043-1.213.4-1.589,1.584-1.576,4.509.05,9.021.082,13.53-.006,2.1-.041,1.514,1.4,1.516,2.45q.038,20.3.016,40.6M158.4,80.351a8.933,8.933,0,0,0,1.653.015c5.01,0,4.84.008,5.077,5,.131,2.735-.549,3.941-3.393,3.393a8.837,8.837,0,0,0-1.652-.015c-5.013,0-4.842-.008-5.081-5-.131-2.739.554-3.939,3.4-3.393M67.911,107.435c-4.046-6.569-8.057-13.16-12.14-19.707A7.38,7.38,0,0,1,54.618,83.6c.024-8.642-.2-17.266,2.6-25.664A50.659,50.659,0,0,1,105,23.152q17.394-.086,34.79,0a50.756,50.756,0,0,1,50.063,45.9c.217,2.234-.043,3.129-2.729,3.108-18.5-.148-37-.105-55.5-.035-1.783.007-2.456-.329-2.722-2.261-.809-5.876-3.9-10.718-8.021-14.764a18.977,18.977,0,0,1-6.076-15.612c.178-2.553-.209-4.952-2.068-6.912-3.289-3.467-15.839-3.49-19.119-.007a6.969,6.969,0,0,0-2.069,5.518c.664,7.195-1.846,12.935-6.977,18.053-5.258,5.246-7.634,11.807-7.492,19.488.285,15.275.085,30.558.085,45.839l-.465.185q-4.395-7.108-8.79-14.218m52.974-5.194c0,9.662-.056,19.325.047,28.986.021,1.955-.536,2.435-2.449,2.417q-15.316-.144-30.635,0c-1.922.018-2.447-.479-2.44-2.422q.111-28.986.026-57.973A14.355,14.355,0,0,1,87.4,66.176a26.821,26.821,0,0,1,4.688-6.105,24.6,24.6,0,0,0,7.672-19.1c-.078-2.135.567-2.8,2.584-2.494a9.656,9.656,0,0,0,2.479,0c1.3-.142,1.793.283,1.723,1.663-.426,8.331,2.723,15.152,8.615,20.966a18.917,18.917,0,0,1,5.81,14.906c-.339,8.729-.087,17.48-.087,26.222M12.576,105.88c-4.718-6.138-5.023-13.2-1.33-20,3.733-6.869,9.828-10.174,17.692-10.159,1.877,0,2.783.514,2.725,2.686-.154,5.79-.052,11.586-.052,17.785-2.051-1.665-3.182-3.624-4.63-5.292-1.969-2.266-4.32-2.765-6.249-1.285-2.034,1.562-2.117,4.057-.148,6.553,3.247,4.118,6.532,8.206,9.8,12.31a3.8,3.8,0,0,1,1.233,2.385c-.017,5.587-.008,11.175-.008,16.762l-.66.217c-6.15-7.3-12.558-14.4-18.37-21.964M196.3,268.173c-3.945,4.886-8.293,6.715-14.752,6.661-41.327-.345-82.659-.191-123.989-.13a6.094,6.094,0,0,1-4.783-1.993A101.064,101.064,0,0,1,33.749,246.15c-.275-.557-.515-1.131-.94-2.071h7.105c9.2,0,18.41-.018,27.615.012,2.431.008,4.423-.644,5.149-3.2.769-2.709-1.287-5.035-4.554-5.074-5.89-.07-11.782-.024-17.673-.025-6.351,0-12.7-.056-19.053.04a2.379,2.379,0,0,1-2.756-1.914,109.228,109.228,0,0,1-4.952-26.493c-.119-1.818.5-2.12,2.127-2.116q27.062.075,54.124-.013c2.078-.008,2.115.61,1.655,2.334a44.989,44.989,0,0,0,45.42,56.961c14.348-.59,25.85-7.053,34.517-18.522.691-.915,1.1-2.023,2.661-2.018,15.73.051,31.46.031,47.7.031-4.161,9.069-9.624,16.7-15.593,24.093M87.152,195.142a3.635,3.635,0,0,1-3.5,1.947q-28.716-.095-57.431,0c-1.977.007-2.4-.488-2.244-2.463a102.642,102.642,0,0,1,6.241-27.59c.712-1.926,1.631-2.6,3.745-2.592q44.316.12,88.632.054,44.041,0,88.081-.046c2.03,0,3,.49,3.765,2.506a108.555,108.555,0,0,1,6.359,27.572c.225,2.162-.411,2.574-2.462,2.564q-25.816-.124-51.634-.011a3.862,3.862,0,0,1-3.779-1.977,44.99,44.99,0,0,0-75.773.034m74.711,24.292a36.82,36.82,0,1,1-36.9-36.753,36.867,36.867,0,0,1,36.9,36.753m59.064-12.247a99.4,99.4,0,0,1-5,26.979c-.365,1.112-.815,1.652-2.085,1.649-15.435-.039-30.871-.025-46.627-.025a45.515,45.515,0,0,0,1.154-28.777c-.417-1.437.087-1.7,1.423-1.7q24.684.053,49.367-.009c1.493-.005,1.829.45,1.77,1.88m4.253-51.281a22.438,22.438,0,0,1-4.116.294q-49.428.022-98.855.012-49.289,0-98.578-.009a23.393,23.393,0,0,1-3.848-.216c-3.776-.634-5.876-3.5-5.661-7.56a6.527,6.527,0,0,1,6.5-6.523c.734-.041,1.472-.016,2.208-.016q99.406,0,198.814,0a13.343,13.343,0,0,1,4.381.342,7.215,7.215,0,0,1,4.74,7.324,6.925,6.925,0,0,1-5.58,6.348" fill="#fffbdf"/>
    <path id="Path_244" data-name="Path 244" d="M143.5,0h-3.315A4.222,4.222,0,0,0,143.5,0" fill="#fcfcfc"/>
    <path id="Path_245" data-name="Path 245" d="M4.753,59.656a4.38,4.38,0,1,0,.053-8.76,4.38,4.38,0,0,0-.053,8.76" fill="#fffbdf"/>
    <path id="Path_246" data-name="Path 246" d="M33.029,35.267a4.547,4.547,0,0,0,4.308-4.477,4.437,4.437,0,0,0-4.484-4.264,4.36,4.36,0,0,0-4.271,4.439,4.462,4.462,0,0,0,4.447,4.3" fill="#fffbdf"/>
    <path id="Path_247" data-name="Path 247" d="M132.644,200.278c-1.842.563-3.682,1.15-5.477,1.847a5.862,5.862,0,0,1-4.232,0c-3.29-1.117-6.5-2.565-10.524-2.673-5.794.256-10.515,3-13.12,8.738-2.694,5.935-1.871,11.647,2.568,16.376,5.729,6.1,11.756,11.931,17.765,17.764,3.246,3.151,7.525,3.072,10.906.01,1.635-1.482,3.158-3.088,4.723-4.646,4.239-4.223,8.55-8.375,12.688-12.693a14.882,14.882,0,0,0,2.02-18.54c-3.622-5.823-10.472-8.283-17.317-6.187m9.463,18.779c-4.126,4.314-8.415,8.473-12.655,12.677-1.43,1.419-2.9,3.836-4.384,3.863-1.431.025-2.933-2.42-4.356-3.828-4.179-4.136-8.358-8.273-12.489-12.456a6.486,6.486,0,0,1-1.447-7.6c1.076-2.506,3.128-3.732,5.988-3.958,2.887.317,5.689,1.535,8.523,2.521a10.757,10.757,0,0,0,7.755-.066c2.05-.784,4.163-1.413,6.271-2.031a6.6,6.6,0,0,1,6.794,10.88" fill="#fffbdf"/>
    <path id="Path_248" data-name="Path 248" d="M103.052,81.838a12.909,12.909,0,1,0,12.779,12.88,13.063,13.063,0,0,0-12.779-12.88M102.8,99.352a4.612,4.612,0,1,1,4.736-4.687,4.779,4.779,0,0,1-4.736,4.687" fill="#fffbdf"/>
  </g>
</svg>
