<svg xmlns="http://www.w3.org/2000/svg" width="28.007" height="22.717" viewBox="0 0 28.007 22.717">
  <path id="Path_39" data-name="Path 39" d="M46.869,24.717C57.45,24.717,63.207,16,63.207,8.379V7.6a12.648,12.648,0,0,0,2.8-2.956,12.916,12.916,0,0,1-3.268.934,6.054,6.054,0,0,0,2.49-3.112,14.272,14.272,0,0,1-3.579,1.4A5.557,5.557,0,0,0,57.45,2a5.846,5.846,0,0,0-5.757,5.757A3.034,3.034,0,0,0,51.848,9,16.087,16.087,0,0,1,40.023,2.934a5.959,5.959,0,0,0-.778,2.956,6.182,6.182,0,0,0,2.49,4.823,5.245,5.245,0,0,1-2.645-.778h0a5.687,5.687,0,0,0,4.668,5.6,4.8,4.8,0,0,1-1.556.156,2.648,2.648,0,0,1-1.089-.156,5.9,5.9,0,0,0,5.446,4.046,11.748,11.748,0,0,1-7.157,2.49,4.308,4.308,0,0,1-1.4-.156,14.686,14.686,0,0,0,8.869,2.8" transform="translate(-38 -2)" fill="#f15831" fill-rule="evenodd"/>
</svg>
